<?xml version="1.0" encoding="UTF-8" standalone="no"?>
<svg
   xmlns:dc="http://purl.org/dc/elements/1.1/"
   xmlns:cc="http://creativecommons.org/ns#"
   xmlns:rdf="http://www.w3.org/1999/02/22-rdf-syntax-ns#"
   xmlns:svg="http://www.w3.org/2000/svg"
   xmlns="http://www.w3.org/2000/svg"
   xmlns:sodipodi="http://sodipodi.sourceforge.net/DTD/sodipodi-0.dtd"
   xmlns:inkscape="http://www.inkscape.org/namespaces/inkscape"
   id="Capa_1"
   enable-background="new 0 0 512 512"
   height="512"
   viewBox="0 0 512 512"
   width="512"
   version="1.1"
   sodipodi:docname="2077042e.svg"
   inkscape:version="0.92.4 (5da689c313, 2019-01-14)">
  <metadata
     id="metadata99">
    <rdf:RDF>
      <cc:Work
         rdf:about="">
        <dc:format>image/svg+xml</dc:format>
        <dc:type
           rdf:resource="http://purl.org/dc/dcmitype/StillImage" />
        <dc:title></dc:title>
      </cc:Work>
    </rdf:RDF>
  </metadata>
  <defs
     id="defs97">
    <inkscape:path-effect
       effect="spiro"
       id="path-effect4617"
       is_visible="true" />
  </defs>
  <sodipodi:namedview
     pagecolor="#ffffff"
     bordercolor="#666666"
     borderopacity="1"
     objecttolerance="10"
     gridtolerance="10"
     guidetolerance="10"
     inkscape:pageopacity="0"
     inkscape:pageshadow="2"
     inkscape:window-width="1920"
     inkscape:window-height="1017"
     id="namedview95"
     showgrid="false"
     inkscape:zoom="1.3037281"
     inkscape:cx="198.53266"
     inkscape:cy="261.166"
     inkscape:window-x="-8"
     inkscape:window-y="-8"
     inkscape:window-maximized="1"
     inkscape:current-layer="Capa_1" />
  <path
     d="m488.751 231.126c-12.465-123.627-116.838-220.126-243.751-220.126s-231.285 96.499-243.751 220.126z"
     fill="#6ad394"
     id="path2" />
  <path
     d="m488.837 232.126c-.846-8.737-2.138-17.344-3.877-25.788h-479.92c-1.739 8.445-3.031 17.051-3.877 25.788z"
     fill="#59b37d"
     id="path4" />
  <path
     d="m488.641 230.126h-487.282c-.892 8.504-1.359 17.134-1.359 25.874 0 16.363 1.618 32.347 4.678 47.812l20.901 61.261c40.127 80.567 123.302 135.927 219.421 135.927 135.31 0 251.295-106.974 245-245-.398-8.731-.466-17.37-1.359-25.874z"
     fill="#74727f"
     id="path6" />
  <path
     d="m312.419 230.126h-311.06c-.892 8.504-1.359 17.134-1.359 25.874 0 16.363 1.618 32.347 4.678 47.812l20.901 61.261c40.127 80.567 123.302 135.927 219.421 135.927 18.985 0 37.465-2.161 55.208-6.247-96.915-57.102-90.925-215.709 12.211-264.627z"
     fill="#5f5e6a"
     id="path8" />
  <path
     d="m10.559 216.008c-2.462 0-4.905.084-7.33.231-1.769 10.833-2.841 21.901-3.139 33.163 3.434-.416 6.922-.656 10.468-.656 47.594 0 86.177 38.583 86.177 86.177 0 31.766-17.2 59.499-42.783 74.444 6.969 8.67 14.508 16.861 22.574 24.504 31.921-21.324 52.948-57.678 52.948-98.948 0-65.675-53.24-118.915-118.915-118.915z"
     fill="#21212b"
     id="path10" />
  <path
     d="m40.218 219.737c.003.004 7.139 10.93-3.563 20.317-1.896 1.663-2.918 4.158-2.624 6.664.176 1.505.124 3.305-.501 5.149 36.438 10.057 63.206 43.421 63.206 83.057 0 31.766-17.2 59.499-42.783 74.444 6.969 8.67 14.508 16.861 22.574 24.504 31.921-21.324 52.948-57.678 52.948-98.948-.001-55.436-37.933-102.01-89.257-115.187z"
     id="path12" />
  <path
     d="m10.558 240.087c-3.399 0-6.756.184-10.064.534-.315 5.088-.494 10.212-.494 15.379 0 .715.021 1.425.027 2.139 3.446-.471 6.958-.735 10.531-.735 42.744 0 77.518 34.775 77.518 77.518 0 28.938-15.949 54.206-39.509 67.521 3.498 4.685 7.161 9.239 10.978 13.656 27.459-16.632 45.849-46.797 45.849-81.177.001-52.292-42.542-94.835-94.836-94.835z"
     fill="#5f5e6a"
     id="path14" />
  <path
     d="m34.495 243.149c-.433 1.124-.608 2.344-.465 3.568.42 3.583-.412 8.832-7.345 12.379-.003.001-.006.004-.009.005 35.033 7.44 61.4 38.604 61.4 75.821 0 28.938-15.949 54.206-39.509 67.521 3.498 4.685 7.161 9.239 10.978 13.656 27.459-16.632 45.849-46.797 45.849-81.177.001-44.026-30.157-81.139-70.899-91.773z"
     fill="#4b4a55"
     id="path16" />
  <path
     d="m124.835 341.433-92.73-14.928 81.914-104.182-8.867-26.695-95.81 121.856 10.516 30.822 103.499 16.662c-.617-2.941-.945-5.987-.945-9.109 0-5.05.861-9.9 2.423-14.426z"
     fill="#fbb031"
     id="path18" />
  <path
     d="m67.12 281.971 46.898-59.647-8.867-26.695-56.468 71.818c.002 0 15.141-2.702 18.437 14.524z"
     fill="#f7991e"
     id="path20" />
  <path
     d="m122.412 355.859c0-5.05.86-9.9 2.423-14.426l-36.761-5.918s9.787 11.08-3.727 23.173l39.01 6.28c-.616-2.941-.945-5.987-.945-9.109z"
     fill="#f7991e"
     id="path22" />
  <path
     d="m169.727 304.585-156.186 8.688c-2.44.136-4.583 1.273-6.064 2.986 1.188 4.698 2.514 9.34 3.969 13.925.814.254 1.676.394 2.568.394.163 0 .326-.005.49-.014l156.186-8.688c4.775-.266 8.43-4.352 8.164-9.127-.265-4.775-4.36-8.421-9.127-8.164z"
     fill="#5f5e6a"
     id="path24" />
  <path
     d="m169.154 388.737-119.835 14.693c4.126 5.467 8.479 10.752 13.038 15.849l108.905-13.353c4.747-.582 8.123-4.902 7.541-9.649-.582-4.746-4.905-8.116-9.649-7.54z"
     fill="#5f5e6a"
     id="path26" />
  <path
     d="m13.726 311.176c-2.517 0-4.94.395-7.216 1.12 3.671 15.612 8.83 30.649 15.329 44.95 9.12-3.315 15.634-12.058 15.634-22.323-.001-13.115-10.633-23.747-23.747-23.747z"
     fill="#d6d6d0"
     id="path28" />
  <path
     d="m13.726 302.517c-3.14 0-6.174.458-9.048 1.295 1.13 5.713 2.462 11.354 3.982 16.917 1.586-.568 3.287-.894 5.065-.894 8.32 0 15.088 6.768 15.088 15.087 0 6.689-4.379 12.368-10.419 14.34 2.212 5.369 4.61 10.641 7.185 15.811 12.021-4.743 20.553-16.465 20.553-30.151 0-17.867-14.538-32.405-32.406-32.405z"
     fill="#eeefeb"
     id="path30" />
  <path
     d="m210.623 349.586 120.779-138.688-14.663-36.739c-.54.484-1.064.993-1.553 1.554l-124.445 142.9c10.554 6.824 18.036 17.999 19.882 30.973z"
     fill="#ffc743"
     id="path32" />
  <path
     d="m235.973 266.674-45.232 51.94c10.554 6.824 18.036 17.999 19.882 30.973l50.448-57.929c-28.678 2.209-25.098-24.984-25.098-24.984z"
     fill="#fbb031"
     id="path34" />
  <path
     d="m317.803 151.377c-1.513-6.302-7.848-10.184-14.15-8.672l-180.657 43.36 7.425 22.354 178.71-42.892c6.303-1.512 10.185-7.847 8.672-14.15z"
     fill="#ffc743"
     id="path36" />
  <path
     d="m190.741 169.806-67.744 16.259 7.425 22.354 67.995-16.32c-19.084-5.847-7.676-22.293-7.676-22.293z"
     fill="#fbb031"
     id="path38" />
  <path
     d="m375.25 105.853c-2.556-4.042-1.351-9.39 2.691-11.946 14.842-9.385 17.51-28.033 17.536-28.22.636-4.723 4.972-8.066 9.699-7.452 4.726.614 8.072 4.911 7.481 9.64-.137 1.089-3.587 26.84-25.461 40.67-4.048 2.56-9.396 1.343-11.946-2.692z"
     fill="#d6d6d0"
     id="path40" />
  <path
     d="m412.039 115.589c-5.846-13.669-19.642-22.227-34.509-22.227h-67.788c-6.739 0-12.152 5.681-11.71 12.516.404 6.237 5.862 10.954 12.112 10.954h67.815c5.923 0 11.356 3.746 13.027 9.427.322 1.094.509 2.257.509 3.481 0 18.442-25.123 26.557-25.33 26.622-6.2 1.892-9.691 8.451-7.798 14.65 1.544 5.057 6.193 8.313 11.219 8.312 1.135 0 2.289-.166 3.431-.514 1.049-.32 10.527-3.328 20.22-10.26 14.215-10.166 21.728-23.586 21.728-38.81.001-5.211-1.127-9.945-2.926-14.151z"
     fill="#4b4a55"
     id="path42" />
  <path
     d="m358.381 105.773c-.341-5.277 2.384-9.944 6.562-12.411h-55.201c-6.739 0-12.152 5.681-11.71 12.516.404 6.237 5.862 10.954 12.112 10.954h55.854c-4.223-2.055-7.299-6.141-7.617-11.059z"
     fill="#363540"
     id="path44" />
  <path
     d="m393.085 216.008c-65.675 0-118.915 53.241-118.915 118.916s53.24 118.915 118.915 118.915 118.915-53.24 118.915-118.915-53.24-118.916-118.915-118.916zm0 205.092c-47.594 0-86.177-38.583-86.177-86.177s38.582-86.177 86.177-86.177 86.177 38.583 86.177 86.177-38.583 86.177-86.177 86.177z"
     fill="#21212b"
     id="path46" />
  <path
     d="m424.033 428.492c.571-2.481-.46-5-2.471-6.561-1.781-1.382-2.746-2.983-3.191-4.609-7.997 2.451-16.486 3.778-25.286 3.778-47.594 0-86.177-38.583-86.177-86.177 0-35.277 21.206-65.585 51.558-78.919l-12.484-30.295c-42.244 18.244-71.812 60.273-71.812 109.214 0 65.675 53.24 118.915 118.915 118.915 14.399 0 28.2-2.56 40.974-7.249-11.46-3.332-11.306-12.536-10.026-18.097z"
     id="path48" />
  <path
     d="m393.085 429.759c-52.293 0-94.836-42.543-94.836-94.836s42.543-94.836 94.836-94.836 94.837 42.543 94.837 94.836c-.001 52.293-42.544 94.836-94.837 94.836zm0-172.354c-42.744 0-77.518 34.775-77.518 77.518 0 42.744 34.774 77.518 77.518 77.518s77.519-34.775 77.519-77.518c-.001-42.744-34.776-77.518-77.519-77.518z"
     fill="#5f5e6a"
     id="path50" />
  <path
     d="m421.562 421.931c-6.493-5.037-2.147-12.993-1.285-14.425-8.467 3.182-17.627 4.935-27.192 4.935-42.744 0-77.518-34.775-77.518-77.518 0-31.604 19.021-58.834 46.208-70.889l-6.605-16.029c-33.473 14.658-56.92 48.099-56.92 86.917 0 52.293 42.543 94.836 94.836 94.836 10.702 0 20.995-1.784 30.6-5.067-.449-1.062-1.172-2.02-2.124-2.76z"
     fill="#4b4a55"
     id="path52" />
  <path
     d="m101.205 114.874c-.234-.704-.534-1.365-.881-1.99l-17.94 7.561c-1.184.499-2.388.917-3.6 1.297.05.177.088.355.147.531l11.804 35.538c1.635 4.924 6.217 8.039 11.134 8.039 1.226 0 2.474-.194 3.701-.602 6.151-2.043 9.481-8.685 7.438-14.836z"
     fill="#eeefeb"
     id="path54" />
  <path
     d="m166.525 311.533-53.516-161.12c-2.043-6.151-8.689-9.482-14.836-7.438-6.151 2.043-9.481 8.685-7.438 14.836l53.167 160.069c6.618-3.994 14.356-6.307 22.623-6.347z"
     fill="#fbb031"
     id="path56" />
  <path
     d="m82.384 120.445c-9.151 3.856-19.257 4.116-28.417 1.027.948 9.949 9.322 17.733 19.52 17.733 10.832 0 19.614-8.781 19.614-19.614 0-1.204-.125-2.377-.333-3.521z"
     fill="#4b4a55"
     id="path58" />
  <circle
     cx="166.744"
     cy="355.859"
     fill="#4b4a55"
     r="46.091"
     id="circle60" />
  <path
     d="m163.388 347.877s-17.885-2.688-12.75-22.004c.684-2.573-.256-5.332-2.359-6.965-1.204-.935-2.384-2.191-3.076-3.797-14.6 7.734-24.55 23.076-24.55 40.748 0 25.456 20.636 46.091 46.091 46.091 6.592 0 12.855-1.394 18.526-3.887z"
     fill="#363540"
     id="path62" />
  <path
     d="m405.618 329.92-74.158-185.81c.21 2.301-.152 4.631-1.089 6.814-1.485 3.456-4.226 6.127-7.721 7.521-1.673.669-3.428 1.007-5.214 1.007-4.404 0-8.422-2.011-11.043-5.337l74.158 185.809c2.059 5.161 6.982 8.498 12.538 8.498 1.711 0 3.392-.326 4.997-.966 6.912-2.758 10.291-10.624 7.532-17.536z"
     fill="#4b4a55"
     id="path64" />
  <path
     d="m346.083 217.21c6.236-2.406 11.815-.98 15.502 2.381l-30.125-75.48c.209 2.301-.152 4.631-1.089 6.814-1.485 3.456-4.227 6.127-7.721 7.521-1.673.669-3.428 1.007-5.214 1.007-4.404 0-8.422-2.011-11.043-5.337l30.456 76.311c.019-5.692 3.556-11.027 9.234-13.217z"
     fill="#363540"
     id="path66" />
  <ellipse
     cx="393.096"
     cy="334.924"
     fill="#d6d6d0"
     rx="23.747"
     ry="23.747"
     id="ellipse68" />
  <path
     d="m393.085 367.328c-17.868 0-32.406-14.537-32.406-32.406 0-17.868 14.538-32.405 32.406-32.405s32.406 14.537 32.406 32.405c0 17.869-14.538 32.406-32.406 32.406zm0-47.492c-8.32 0-15.088 6.768-15.088 15.087s6.768 15.088 15.088 15.088 15.088-6.768 15.088-15.088c0-8.319-6.768-15.087-15.088-15.087z"
     fill="#eeefeb"
     id="path70" />
  <path
     d="m317.435 161.213c-6.291 0-12.244-3.774-14.718-9.974l-15.951-39.968c-3.243-8.126.715-17.343 8.841-20.586 8.121-3.243 17.342.715 20.586 8.841l15.951 39.968c3.243 8.126-.715 17.343-8.841 20.586-1.925.769-3.912 1.133-5.868 1.133z"
     fill="#eeefeb"
     id="path72" />
  <path
     d="m307.977 122.165c6.547-2.615 13.717-1.054 18.607 3.395l-10.39-26.035c-3.243-8.127-12.465-12.085-20.586-8.841-8.126 3.243-12.085 12.459-8.842 20.586l10.114 25.343c.753-6.269 4.819-11.943 11.097-14.448z"
     fill="#d6d6d0"
     id="path74" />
  <path
     d="m430.029 122.034c-7.968-31.698-36.933-44.708-37.225-44.836-4.38-1.918-6.376-7.024-4.458-11.405s7.023-6.377 11.405-4.459c1.508.66 37.057 16.635 47.072 56.477 1.166 4.638-1.648 9.343-6.287 10.509-4.618 1.163-9.337-1.631-10.507-6.286z"
     fill="#eeefeb"
     id="path76" />
  <path
     d="m160.211 88.535c-6.63-7.487-19.845-7.909-30.169-7.909-13.669 0-34.455 2.696-48.657 4.81-10.502 1.564-21.211.792-31.377-2.27-8.895-2.679-17.855 3.98-17.855 13.27 0 8.744 4.229 16.948 11.35 22.021 11.339 8.077 26.053 9.703 38.882 4.297l36.798-15.508c7.167-3.02 14.866-4.576 22.644-4.576h5.798c9.551 0 18.918-6.984 12.586-14.135z"
     fill="#eb5793"
     id="path78" />
  <path
     d="m87.502 118.457c-7.122-5.073-11.35-13.277-11.35-22.021 0-4.595 2.197-8.541 5.49-11.037-.084.012-.174.025-.257.038-10.502 1.564-21.211.792-31.377-2.27-8.895-2.679-17.855 3.98-17.855 13.27 0 8.744 4.229 16.948 11.35 22.021 11.339 8.077 26.053 9.703 38.882 4.297l7.088-2.987c-.667-.419-1.326-.851-1.971-1.311z"
     fill="#e7387f"
     id="path80" />
  <path
     d="m166.745 410.609c-30.191 0-54.751-24.561-54.751-54.751s24.561-54.751 54.751-54.751c30.189 0 54.75 24.561 54.75 54.751s-24.561 54.751-54.75 54.751zm0-92.183c-20.641 0-37.433 16.792-37.433 37.433s16.793 37.432 37.433 37.432c20.641 0 37.432-16.792 37.432-37.432 0-20.641-16.792-37.433-37.432-37.433z"
     fill="#eeefeb"
     id="path82" />
  <path
     d="m188.726 405.987-6.92-15.871c-4.612 2.036-9.705 3.175-15.061 3.175-20.641 0-37.433-16.792-37.433-37.432 0-14.834 8.673-27.68 21.215-33.734-.405-1.249-1.171-2.381-2.247-3.217-3.123-2.426-6.124-6.987-.703-14.329-20.763 7.786-35.583 27.832-35.583 51.28 0 30.19 24.561 54.751 54.751 54.751 7.816-.001 15.248-1.659 21.981-4.623z"
     fill="#d6d6d0"
     id="path84" />
  <circle
     cx="166.525"
     cy="355.859"
     fill="#21212b"
     r="16.468"
     id="circle86" />
  <path
     d="m198.848 440.855c-3.38 0-6.592-1.992-7.986-5.305l-32.1-76.335c-1.854-4.408.218-9.484 4.626-11.339 4.405-1.852 9.484.216 11.339 4.626l32.1 76.335c1.854 4.408-.217 9.485-4.626 11.339-1.095.461-2.233.679-3.353.679z"
     fill="#eeefeb"
     id="path88" />
  <path
     d="m215.974 440.853h-34.257c-4.783 0-8.659-3.877-8.659-8.659s3.876-8.659 8.659-8.659h34.257c4.783 0 8.659 3.877 8.659 8.659s-3.877 8.659-8.659 8.659z"
     fill="#5f5e6a"
     id="path90" />
  <path
     d="m195.707 432.194c0-4.782 3.876-8.659 8.659-8.659h-22.65c-4.783 0-8.659 3.877-8.659 8.659s3.876 8.659 8.659 8.659h22.65c-4.783 0-8.659-3.877-8.659-8.659z"
     fill="#4b4a55"
     id="path92" />
  <path
     style="fill:#b7f6f3;stroke:none;stroke-width:1px;stroke-linecap:round;stroke-linejoin:round;stroke-opacity:1;fill-opacity:1;paint-order:stroke fill markers"
     d="m 196.35996,48.713224 h 68.26576 l -36.81749,44.487803 h 31.44828 L 200.96214,156.09758 214.7687,114.6779 h -30.68124 z"
     id="path4615"
     inkscape:connector-curvature="0"
     inkscape:path-effect="#path-effect4617"
     inkscape:original-d="m 196.35996,48.713224 h 68.26576 l -36.81749,44.487803 h 31.44828 L 200.96214,156.09758 214.7687,114.6779 h -30.68124 z" />
</svg>
