<?xml version="1.0" encoding="UTF-8" standalone="no"?><svg   xmlns:dc="http://purl.org/dc/elements/1.1/"   xmlns:cc="http://creativecommons.org/ns#"   xmlns:rdf="http://www.w3.org/1999/02/22-rdf-syntax-ns#"   xmlns:svg="http://www.w3.org/2000/svg"   xmlns="http://www.w3.org/2000/svg"   id="svg4"   viewBox="0 0 24 24"   height="24"   width="24"   version="1.1">  <metadata     id="metadata10">    <rdf:RDF>    <cc:Work         rdf:about="">        <dc:format>image/svg+xml</dc:format>        <dc:type           rdf:resource="http://purl.org/dc/dcmitype/StillImage" />        <dc:title></dc:title>      </cc:Work>    </rdf:RDF>  </metadata>  <defs     id="defs8" />  <path     style="stroke:none;stroke-opacity:1;fill:black;fill-opacity:1"     id="path2"     d="M12,11C11.45,11 11,11.45 11,12C11,12.55 11.45,13 12,13C12.55,13 13,12.55 13,12C13,11.45 12.55,11 12,11M12,16.5C9.5,16.5 7.5,14.5 7.5,12C7.5,9.5 9.5,7.5 12,7.5C14.5,7.5 16.5,9.5 16.5,12C16.5,14.5 14.5,16.5 12,16.5M12,2C6.48,2 2,6.48 2,12C2,17.52 6.48,22 12,22C17.52,22 22,17.52 22,12C22,6.48 17.52,2 12,2Z" /></svg>